<svg id="Layer_1" data-name="Layer 1" xmlns="http://www.w3.org/2000/svg" xmlns:xlink="http://www.w3.org/1999/xlink" viewBox="0 0 833.51 691.17"><defs><clipPath id="clip-path" transform="translate(-11.07 -216.4)"><path d="M873.15,378c-25.92,33.59-84.12,26.72-100.3,24.84-34.49-4.1-49.24-14.58-75.14-32.08,11.52,7.2,52.08,30,90.69,26.72,8-.67,47.84-2.33,55.49-37.1,7.7-35.07-57-84.44-67.06-91.6C704.21,217.23,623,216.36,579.5,216.45c-28.18.09-97.42,3-176.85,38.12-65.1,28.71-109.35,72.75-137.23,91.84-9.45,6.17-18.3,12.18-26.3,17.62-25.2,17.11-41.61,29.91-67.18,30.44-6.25.17-35.4.88-48-15.38-25.92-33.49,33.78-118.94,62-159.25,31.51-45.1,73.25-91.22,138.83-144.1,43.45-35,114.5-75.15,200.52-71,114.69,5.56,213.56,88,247.36,125.64,0,0,102.63,94.31,112.36,193.64C887.07,344.89,884.37,363.42,873.15,378Z" fill="none"/></clipPath><clipPath id="clip-path-2" transform="translate(-11.07 -216.4)"><path d="M843.89,360.4c-7.65,34.77-47.49,36.43-55.49,37.1-38.61,3.25-79.17-19.52-90.69-26.72-19.73-13.33-46-30.73-92.22-52.4,0,0-89.93-42.55-160.48-39.09a289.93,289.93,0,0,0-98.33,21.95c-28.22,11.84-56.76,29.1-81.26,45.17,27.88-19.09,72.13-63.13,137.23-91.84,79.43-35.09,148.67-38,176.85-38.12,43.49-.09,124.71.78,197.33,52.35C786.9,276,851.59,325.33,843.89,360.4Z" fill="none"/></clipPath><clipPath id="clip-path-3" transform="translate(-11.07 -216.4)"><path d="M440.44,801.9c-39.37,47.4-144.8,44.43-220.16,25.73C167.74,814.57,112.46,799,65.93,743.55c-5.36-6.4-59.56-80.94-54.48-179.42,1.74-33.66,12.41-89.88,61.73-120.51,41.63-25.86,99.19-24.88,137.63,2.43a101.76,101.76,0,0,1,21,19.95,0,0,0,0,1,0,.05c10.94,15.37,16,42.51,16.15,69.95.36,68-5.83,79.73,6.65,122.9,13.55,46.7,41.12,68,57.3,81.27,4,3.27,45.46,30,101.76,36.18,6.6.73,20.31,3.5,26-5,3.41-5,2.54-10.47-2.82-14.53,8.37,2.42,13.25,6.92,15.25,13.44C456.07,783.12,444.26,797.27,440.44,801.9Z" fill="none"/></clipPath><clipPath id="clip-path-4" transform="translate(-11.07 -216.4)"><path d="M439.68,771.34c-5.71,8.51-19.42,5.74-26,5-56.3-6.15-97.79-32.91-101.76-36.18-16.18-13.3-43.75-34.57-57.3-81.27C242.12,615.73,248.31,604,248,536c-.19-27.44-5.21-54.58-16.15-69.95C256.65,497.29,259.56,536.43,261,547c3,21,1.59,42.07,8.37,73,5.11,23.25,12.27,35,22.79,52.52,27.29,45.43,83.14,64.84,101,71.05s33.09,9.12,43.64,13.24C442.22,760.87,443.09,766.33,439.68,771.34Z" fill="none"/></clipPath><clipPath id="clip-path-5" transform="translate(-11.07 -216.4)"><path d="M952.75,757.33c-10.56,22.45-51.62,104.44-145.19,167.58-89.68,60.49-176.51,69.23-223.37,73.39,0,0-123.1,10.86-252.59-53.15C305.12,932,298.81,919,297.78,911c-.62-4.79-2.5-16.22,7.26-24.75,5.41-4.72,11.92-7.75,19.23-9.71-4.74,1.67-5.85,5.38-5.24,10.06,2.1,16.07,55,20.15,62.17,20.41,27.63.91,48.46.75,74.82-4.48,95.09-18.78,155.39-88.41,178.42-122.63,11.32-16.87,20.11-34.46,35.32-70,16.68-39.06,15.36-47.38,43-127.36,21-60.83,32.24-98.41,69-122,36.78-18.93,89.28-24.75,132.26-1.91,45.24,24,62.79,69.1,67.7,89.56C1002.62,635.43,973.07,714,952.75,757.33Z" fill="none"/></clipPath><clipPath id="clip-path-6" transform="translate(-11.07 -216.4)"><path d="M781.78,460.48c-36.79,23.63-48,61.21-69,122-27.63,80-26.31,88.3-43,127.36-15.21,35.57-24,53.16-35.32,70-23,34.22-83.33,103.85-178.42,122.63-26.36,5.23-47.19,5.39-74.82,4.48-7.19-.26-60.07-4.34-62.17-20.41-.61-4.68.5-8.39,5.24-10.06a3.28,3.28,0,0,1,.67-.17c.55-.15,1.1-.3,1.66-.42,15-3.48,33.27-2.94,52.66-3.24,104.48-1.79,184-86.49,193.49-97.11,13.5-15.15,24.62-31.37,44.53-64.54,21.89-36.4,21.74-44.83,60-120.24,29.1-57.44,46.49-88.42,81.14-115.08a143.09,143.09,0,0,1,21.64-14.41C780.63,461.07,781.2,460.75,781.78,460.48Z" fill="none"/></clipPath></defs><path d="M843.89,360.4c-7.65,34.77-47.49,36.43-55.49,37.1-38.61,3.25-79.17-19.52-90.69-26.72-19.73-13.33-46-30.73-92.22-52.4,0,0-89.93-42.55-160.48-39.09a289.93,289.93,0,0,0-98.33,21.95c-28.22,11.84-56.76,29.1-81.26,45.17,27.88-19.09,72.13-63.13,137.23-91.84,79.43-35.09,148.67-38,176.85-38.12,43.49-.09,124.71.78,197.33,52.35C786.9,276,851.59,325.33,843.89,360.4Z" transform="translate(-11.07 -216.4)" fill="none" stroke="#00a19a" stroke-miterlimit="10" stroke-width="0.1"/><path d="M440.44,801.9c-39.37,47.4-144.8,44.43-220.16,25.73C167.74,814.57,112.46,799,65.93,743.55c-5.36-6.4-59.56-80.94-54.48-179.42,1.74-33.66,12.41-89.88,61.73-120.51,41.63-25.86,99.19-24.88,137.63,2.43a101.76,101.76,0,0,1,21,19.95,0,0,0,0,1,0,.05c10.94,15.37,16,42.51,16.15,69.95.36,68-5.83,79.73,6.65,122.9,13.55,46.7,41.12,68,57.3,81.27,4,3.27,45.46,30,101.76,36.18,6.6.73,20.31,3.5,26-5,3.41-5,2.54-10.47-2.82-14.53,8.37,2.42,13.25,6.92,15.25,13.44C456.07,783.12,444.26,797.27,440.44,801.9Z" transform="translate(-11.07 -216.4)" fill="none" stroke="#d5647c" stroke-miterlimit="10" stroke-width="0.1"/><path d="M439.68,771.34c-5.71,8.51-19.42,5.74-26,5-56.3-6.15-97.79-32.91-101.76-36.18-16.18-13.3-43.75-34.57-57.3-81.27C242.12,615.73,248.31,604,248,536c-.19-27.44-5.21-54.58-16.15-69.95C256.65,497.29,259.56,536.43,261,547c3,21,1.59,42.07,8.37,73,5.11,23.25,12.27,35,22.79,52.52,27.29,45.43,83.14,64.84,101,71.05s33.09,9.12,43.64,13.24C442.22,760.87,443.09,766.33,439.68,771.34Z" transform="translate(-11.07 -216.4)" fill="none" stroke="#d5647c" stroke-miterlimit="10" stroke-width="0.1"/><path d="M781.78,460.48c-36.79,23.63-48,61.21-69,122-27.63,80-26.31,88.3-43,127.36-15.21,35.57-24,53.16-35.32,70-23,34.22-83.33,103.85-178.42,122.63-26.36,5.23-47.19,5.39-74.82,4.48-7.19-.26-60.07-4.34-62.17-20.41-.61-4.68.5-8.39,5.24-10.06a3.28,3.28,0,0,1,.67-.17c.55-.15,1.1-.3,1.66-.42,15-3.48,33.27-2.94,52.66-3.24,104.48-1.79,184-86.49,193.49-97.11,13.5-15.15,24.62-31.37,44.53-64.54,21.89-36.4,21.74-44.83,60-120.24,29.1-57.44,46.49-88.42,81.14-115.08a143.09,143.09,0,0,1,21.64-14.41C780.63,461.07,781.2,460.75,781.78,460.48Z" transform="translate(-11.07 -216.4)" fill="none" stroke="#1d71b8" stroke-miterlimit="10" stroke-width="0.25"/></svg>